#!OML:ASF I:\golf\golf\golf 2\Subject 1\2002-09-07\Subject1.ASF
:FULLY-SPECIFIED
:DEGREES
388
root 1.15601 17.6846 -4.06166 10.7628 10.5837 -5.23852
lowerback 10.7806 0.875186 -1.07873
upperback 2.62224 1.31897 6.32534
thorax -3.48085 0.68906 7.10438
lowerneck -22.8659 -10.8278 -5.68785
upperneck 8.05581 -13.8934 7.38968
head 7.01225 -6.22617 1.5013
rclavicle -8.74653e-015 -4.85035e-014
rhumerus -17.85 11.0631 -75.1495
rradius 78.7328
rwrist -32.6696
rhand -27.2978 -0.456309
rfingers 7.12502
rthumb -0.707666 -30.4349
lclavicle -8.74653e-015 -4.85035e-014
lhumerus -24.0731 -18.7022 95.4355
lradius 70.1704
lwrist 6.43068
lhand -9.38005 38.189
lfingers 7.12502
lthumb 16.5806 67.5007
rfemur -36.2929 -5.11691 25.2532
rtibia 36.2127
rfoot -10.04 4.09082
rtoes 4.15219
lfemur -24.4041 -1.2993 -13.5553
ltibia 37.9359
lfoot -21.7727 -4.47333
ltoes -1.97346
389
root 1.18556 17.6906 -4.07803 10.6163 10.3238 -5.17891
lowerback 10.5037 0.819424 -1.30975
upperback 2.34853 1.22423 6.29674
thorax -3.60613 0.651554 7.22252
lowerneck -22.6139 -10.7743 -5.69314
upperneck 8.24112 -13.8358 7.31416
head 7.02557 -6.20739 1.4922
rclavicle -3.97569e-016 3.18055e-014
rhumerus -19.013 11.7066 -75.913
rradius 80.3208
rwrist -33.8952
rhand -27.1664 -0.612564
rfingers 7.12502
rthumb -0.580809 -30.5915
lclavicle -3.97569e-016 3.18055e-014
lhumerus -24.4032 -18.9785 95.7064
lradius 70.4883
lwrist 6.26813
lhand -9.339 38.2156
lfingers 7.12502
lthumb 16.6201 67.524
rfemur -36.072 -5.0538 25.0588
rtibia 36.0284
rfoot -9.8777 4.1589
rtoes 3.79726
lfemur -24.1723 -1.46096 -13.7961
ltibia 37.9184
lfoot -21.8037 -3.927
ltoes -2.22245
390
root 1.21219 17.7015 -4.09462 10.39 10.1184 -5.30347
lowerback 10.3517 0.752945 -1.34836
upperback 2.01592 1.14184 6.26995
thorax -3.86 0.622755 7.2297
lowerneck -21.8097 -10.6505 -5.76609
upperneck 8.05899 -13.718 7.56285
head 6.86081 -6.15838 1.63438
rclavicle 1.43125e-014 3.81667e-014
rhumerus -20.1895 12.4728 -76.8049
rradius 81.6597
rwrist -35.409
rhand -27.1963 -0.0287294
rfingers 7.12502
rthumb -0.609728 -30.0076
lclavicle 1.43125e-014 3.81667e-014
lhumerus -24.8544 -19.3565 95.9109
lradius 70.8602
lwrist 6.11606
lhand -9.06977 38.5804
lfingers 7.12502
lthumb 16.8793 67.8668
rfemur -35.7549 -4.97675 25.0779
rtibia 35.7923
rfoot -9.79011 4.18902
rtoes 3.38495
lfemur -23.9034 -1.5913 -13.8174
ltibia 37.9095
lfoot -21.883 -3.34075
ltoes -2.82476
391
root 1.2388 17.7013 -4.10524 10.0978 9.81539 -5.43968
lowerback 10.1304 0.74561 -1.38238
upperback 1.88035 1.12884 6.25389
thorax -3.87787 0.619544 7.23397
lowerneck -21.5005 -10.5921 -5.84389
upperneck 7.9599 -13.6592 7.77357
head 6.79987 -6.1251 1.73469
rclavicle 3.18055e-014 -8.42847e-014
rhumerus -21.0059 12.8428 -77.5045
rradius 83.058
rwrist -35.8083
rhand -26.6558 -0.723443
rfingers 7.12502
rthumb -0.0876215 -30.7032
lclavicle 3.18055e-014 -8.42847e-014
lhumerus -24.9664 -19.7641 96.0471
lradius 71.1603
lwrist 5.93875
lhand -8.62201 38.472
lfingers 7.12502
lthumb 17.3103 67.7211
rfemur -35.3729 -4.90805 25.1209
rtibia 35.5785
rfoot -9.7268 4.31294
rtoes 3.34225
lfemur -23.5385 -1.55429 -13.8371
ltibia 37.911
lfoot -22.0837 -2.98167
ltoes -2.66548
392
root 1.2646 17.7052 -4.11515 9.89625 9.45811 -5.54921
lowerback 9.75432 0.753646 -1.4756
upperback 1.80857 1.1259 6.26873
thorax -3.74554 0.617776 7.30363
lowerneck -21.7223 -10.6534 -5.89396
upperneck 8.24728 -13.7327 7.7392
head 6.93372 -6.15004 1.70503
rclavicle 1.39149e-014 -4.53229e-014
rhumerus -21.7122 13.3941 -78.1732
rradius 84.3982
rwrist -36.5232
rhand -26.1999 -0.661425
rfingers 7.12502
rthumb 0.35267 -30.6409
lclavicle 1.39149e-014 -4.53229e-014
lhumerus -25.0346 -20.1494 96.2084
lradius 71.554
lwrist 6.04725
lhand -8.53298 38.1206
lfingers 7.12502
lthumb 17.396 67.3622
rfemur -35.1141 -4.72177 25.1209
rtibia 35.4332
rfoot -9.667 4.38935
rtoes 3.64878
lfemur -23.2701 -1.54382 -13.8487
ltibia 37.8473
lfoot -22.1327 -2.94094
ltoes -1.0276
393
root 1.28775 17.7067 -4.12768 9.74967 9.12669 -5.64086
lowerback 9.34325 0.748705 -1.5947
upperback 1.69789 1.10378 6.25785
thorax -3.63142 0.607705 7.36327
lowerneck -21.8675 -10.7105 -5.86963
upperneck 8.6503 -13.8264 7.64872
head 7.08587 -6.18649 1.64412
rclavicle 1.51076e-014 -2.14687e-014
rhumerus -22.4779 14.0633 -78.9238
rradius 85.6114
rwrist -37.2623
rhand -25.5739 -0.631005
rfingers 7.12502
rthumb 0.957323 -30.6086
lclavicle 1.51076e-014 -2.14687e-014
lhumerus -25.174 -20.556 96.3551
lradius 72.0271
lwrist 5.91887
lhand -8.36533 38.3332
lfingers 7.12502
lthumb 17.5573 67.5604
rfemur -34.9919 -4.52007 25.1154
rtibia 35.4289
rfoot -9.69549 4.3931
rtoes 3.18499
lfemur -23.0826 -1.60581 -13.8391
ltibia 37.7893
lfoot -22.0251 -2.9143
ltoes 1.11387
394
root 1.31214 17.6981 -4.1379 9.47515 8.84075 -5.61232
lowerback 9.02231 0.721653 -1.78091
upperback 1.68032 1.0422 6.20312
thorax -3.46428 0.575013 7.41894
lowerneck -22.0306 -10.7333 -5.83679
upperneck 9.05294 -13.8878 7.63375
head 7.24518 -6.1996 1.60954
rclavicle -9.93923e-015 -3.97569e-014
rhumerus -23.1336 14.7375 -79.6415
rradius 86.7996
rwrist -37.9755
rhand -24.9382 -1.0967
rfingers 7.12502
rthumb 1.57124 -31.0707
lclavicle -9.93923e-015 -3.97569e-014
lhumerus -25.1764 -20.8945 96.4371
lradius 72.4354
lwrist 5.30564
lhand -7.84763 38.6285
lfingers 7.12502
lthumb 18.0554 67.8105
rfemur -34.7466 -4.55399 25.0138
rtibia 35.4744
rfoot -9.75342 4.55662
rtoes 2.46003
lfemur -22.6368 -1.47699 -13.9989
ltibia 37.7105
lfoot -22.0451 -2.72129
ltoes 1.05575
395
root 1.33529 17.6848 -4.15029 9.2203 8.54673 -5.61733
lowerback 8.75697 0.684468 -1.92023
upperback 1.6352 0.975063 6.15518
thorax -3.35521 0.540815 7.45552
lowerneck -22.1905 -10.7414 -5.87937
upperneck 9.4463 -13.9203 7.69355
head 7.41122 -6.19465 1.6141
rclavicle 6.16232e-015 -6.36111e-015
rhumerus -23.8465 15.4661 -80.3739
rradius 88.1084
rwrist -38.6421
rhand -24.6032 -1.25072
rfingers 7.12502
rthumb 1.89479 -31.2221
lclavicle 6.16232e-015 -6.36111e-015
lhumerus -25.272 -21.2336 96.4994
lradius 72.9373
lwrist 4.77927
lhand -7.49276 38.6334
lfingers 7.12502
lthumb 18.3969 67.7835
rfemur -34.5716 -4.57957 24.9522
rtibia 35.5656
rfoot -9.75598 4.78194
rtoes 2.35586
lfemur -22.2321 -1.17619 -14.1316
ltibia 37.6548
lfoot -22.1259 -2.53688
ltoes -0.379326
396
root 1.35492 17.6839 -4.1665 9.10741 8.16412 -5.66742
lowerback 8.49428 0.675164 -2.09766
upperback 1.47029 0.948112 6.12261
thorax -3.37937 0.533257 7.52721
lowerneck -22.1214 -10.7138 -5.85923
upperneck 9.64251 -13.9082 7.68719
head 7.4632 -6.18497 1.60924
rclavicle -2.44505e-014 2.46493e-014
rhumerus -24.7567 16.283 -81.1859
rradius 89.4934
rwrist -39.2389
rhand -24.4824 -1.04783
rfingers 7.12502
rthumb 2.0115 -31.0181
lclavicle -2.44505e-014 2.46493e-014
lhumerus -25.5834 -21.5797 96.6123
lradius 73.5451
lwrist 4.25933
lhand -7.40339 38.3528
lfingers 7.12502
lthumb 18.4828 67.4948
rfemur -34.5328 -4.43004 24.9362
rtibia 35.6164
rfoot -9.7524 4.91507
rtoes 1.93121
lfemur -22.0317 -0.947265 -14.1937
ltibia 37.6197
lfoot -22.1734 -2.39202
ltoes -0.945177
397
root 1.37546 17.6834 -4.17842 8.8877 7.82908 -5.67333
lowerback 8.31309 0.643095 -2.32418
upperback 1.38161 0.886328 6.12551
thorax -3.36514 0.50661 7.67004
lowerneck -22.091 -10.7087 -5.83541
upperneck 9.69658 -13.9071 7.6452
head 7.47116 -6.18668 1.59265
rclavicle -1.45113e-014 -1.27222e-014
rhumerus -25.4383 17.2007 -81.9604
rradius 90.5779
rwrist -39.703
rhand -24.1555 -0.795057
rfingers 7.12502
rthumb 2.32716 -30.7621
lclavicle -1.45113e-014 -1.27222e-014
lhumerus -25.7924 -21.7768 96.797
lradius 74.0341
lwrist 3.57361
lhand -7.62455 37.7703
lfingers 7.12502
lthumb 18.2701 66.9323
rfemur -34.3117 -4.44415 24.8949
rtibia 35.593
rfoot -9.80973 5.10146
rtoes 1.14676
lfemur -21.7447 -0.742383 -14.315
ltibia 37.6523
lfoot -22.312 -2.28131
ltoes -1.23377
398
root 1.39574 17.6877 -4.19063 8.63971 7.61115 -5.78554
lowerback 8.08253 0.562124 -2.38278
upperback 1.39705 0.77225 6.18168
thorax -3.20444 0.445709 7.77687
lowerneck -22.3233 -10.7525 -5.93979
upperneck 9.87261 -13.9471 7.70169
head 7.58101 -6.19178 1.60625
rclavicle 7.7526e-015 8.74653e-015
rhumerus -25.684 18.1561 -82.6613
rradius 91.2633
rwrist -39.9552
rhand -23.6564 -0.377733
rfingers 7.12502
rthumb 2.80921 -30.339
lclavicle 7.7526e-015 8.74653e-015
lhumerus -25.8246 -21.9605 96.9208
lradius 74.552
lwrist 2.72879
lhand -7.98141 37.0778
lfingers 7.12502
lthumb 17.9267 66.2716
rfemur -34.0211 -4.50854 24.9662
rtibia 35.4897
rfoot -9.801 5.30767
rtoes 1.1383
lfemur -21.4888 -0.472836 -14.3124
ltibia 37.678
lfoot -22.4046 -2.28346
ltoes -1.57464
399
root 1.41365 17.6919 -4.20598 8.4979 7.35874 -5.95791
lowerback 7.74012 0.500549 -2.42647
upperback 1.37504 0.686332 6.24478
thorax -3.02416 0.398952 7.87829
lowerneck -22.4734 -10.7663 -6.02348
upperneck 10.0824 -13.9597 7.75493
head 7.68608 -6.18496 1.6226
rclavicle -8.15017e-015 -1.59028e-014
rhumerus -26.0217 19.0648 -83.3438
rradius 92.0259
rwrist -40.1928
rhand -23.1445 -0.216348
rfingers 7.12502
rthumb 3.30353 -30.1705
lclavicle -8.15017e-015 -1.59028e-014
lhumerus -25.9197 -22.2169 96.9904
lradius 75.1625
lwrist 1.6924
lhand -8.11431 36.4939
lfingers 7.12502
lthumb 17.7988 65.6993
rfemur -33.8647 -4.4231 25.086
rtibia 35.381
rfoot -9.72367 5.48194
rtoes 1.55965
lfemur -21.3477 -0.234601 -14.226
ltibia 37.6758
lfoot -22.4085 -2.2246
ltoes -1.79405
400
root 1.43247 17.6914 -4.21858 8.33912 7.03506 -5.98461
lowerback 7.38559 0.466423 -2.6195
upperback 1.35191 0.6235 6.255
thorax -2.84227 0.364659 8.00677
lowerneck -22.5054 -10.7556 -6.05809
upperneck 10.2014 -13.945 7.76454
head 7.73334 -6.17381 1.62899
rclavicle 6.36111e-015 -2.94201e-014
rhumerus -26.5595 19.9554 -84.0222
rradius 92.9371
rwrist -40.5217
rhand -22.5115 -0.283815
rfingers 7.12502
rthumb 3.91483 -30.2276
lclavicle 6.36111e-015 -2.94201e-014
lhumerus -26.0488 -22.4608 97.1047
lradius 75.6906
lwrist 0.800594
lhand -8.20668 36.0935
lfingers 7.12502
lthumb 17.71 65.307
rfemur -33.6565 -4.36377 25.0451
rtibia 35.2414
rfoot -9.62089 5.70315
rtoes 1.78949
lfemur -21.0929 -0.0750576 -14.3102
ltibia 37.6291
lfoot -22.4188 -2.07762
ltoes -1.80331
401
root 1.45289 17.6922 -4.23002 8.14012 6.71507 -5.91027
lowerback 7.18988 0.419208 -2.80562
upperback 1.29578 0.544232 6.18836
thorax -2.77965 0.325579 8.05028
lowerneck -22.6127 -10.7574 -6.04137
upperneck 10.4898 -13.9687 7.74993
head 7.84655 -6.17397 1.60753
rclavicle 3.57812e-015 -6.36111e-015
rhumerus -27.1647 20.8386 -84.8066
rradius 93.7659
rwrist -40.8338
rhand -21.7111 -0.160912
rfingers 7.12502
rthumb 4.68774 -30.089
lclavicle 3.57812e-015 -6.36111e-015
lhumerus -26.2938 -22.8088 97.2075
lradius 76.2402
lwrist 0.43216
lhand -8.7853 35.5913
lfingers 7.12502
lthumb 17.1531 64.8541
rfemur -33.3863 -4.30889 24.8692
rtibia 35.1055
rfoot -9.49821 5.9354
rtoes 2.29856
lfemur -20.7784 0.0742204 -14.5185
ltibia 37.5763
lfoot -22.4495 -2.03527
ltoes -1.10902
